<svg xmlns="http://www.w3.org/2000/svg" width="61" height="81" stroke="none" stroke-linecap="round" stroke-linejoin="round" fill="#fff" fill-rule="evenodd"><path d="M60.4724 15.1181H0l5.0394 57.9528 25.1968 7.559 25.1969-7.559 5.0393-57.9528" fill="#e44d26"/><path d="M22.5422 65.7233l-8.279-2.4837-.675-7.7616-.2229-2.5646h8.063l.4389 5.0483 8.369 2.5108v7.559zm7.694-32.9673H19.6754l.6574 7.559h9.9034v7.5591h-9.2461-8.063l-.6573-7.5591-.6574-7.559-.6572-7.5591h8.063 11.218z" fill="#ebebeb"/><path d="M52.1465 52.9134l.4382-5.0394.6573-7.559.6574-7.5591.6572-7.559.4382-5.0394H30.2362v55.4331l15.2981-4.5895 5.1743-1.5522.6749-7.7615.675-7.7616z" fill="#f16529"/><path d="M30.2362 32.756H40.797h8.063l.6572-7.5591h-8.063-11.218zm9.2461 15.1181h-9.2461V40.315h9.9035 8.063l-.6574 7.5591-.4382 5.0393-.2229 2.5647-.675 7.7615-8.279 2.4837-7.694 2.3082v-7.559l8.369-2.5107.4389-5.0484z"/></svg>