<svg xmlns="http://www.w3.org/2000/svg" width="80" height="80" stroke="#000" stroke-linecap="round" stroke-linejoin="round" fill="#fff" fill-rule="evenodd"><defs><linearGradient id="A" x1="0%" y1="100%" x2="100%" y2="0%"><stop offset="0%" stop-color="#070135"/><stop offset="100%" stop-color="#612d50"/></linearGradient></defs><g stroke="none"><path d="M79.3701 12.2108C79.3701 4.8843 73.2647 0 65.9382 0H13.4319C6.1053 0 0 4.8843 0 12.2108v54.9485c0 7.3264 6.1053 12.2108 13.4319 12.2108h52.5063c7.3265 0 13.4319-4.8844 13.4319-12.2108z" fill="url(#A)"/><path d="M39.1277 33.9951c2.0493 0 3.6032-.4504 4.6617-1.3512s1.5877-2.2295 1.5877-3.9861c0-1.7341-.5292-3.0516-1.5877-3.9524-1.0585-.9233-2.6124-1.3849-4.6617-1.385h-7.1954v10.6747h7.1954m.4391 22.059c2.6124 0 4.5716-.5519 5.8778-1.6553 1.3287-1.1035 1.9931-2.77 1.9931-4.9996 0-2.1845-.6531-3.8172-1.9592-4.8982-1.3063-1.1035-3.2768-1.6553-5.9117-1.6553h-7.6345v13.2084h7.6345m12.0935-18.1404c2.7925.8108 4.9545 2.3084 6.4859 4.4929s2.2971 4.8644 2.2972 8.0398c-.0001 4.8645-1.644 8.4903-4.9321 10.8774s-8.2876 3.5808-14.9986 3.5808h-21.586V14.4698H38.452c7.0039 0 12.071 1.0585 15.2014 3.1754 3.1529 2.117 4.7293 5.5063 4.7294 10.168-.0001 2.4548-.5744 4.5492-1.7229 6.2832-1.1486 1.7116-2.8151 2.9841-4.9996 3.8173"/></g></svg>